<svg width="181" height="395" viewBox="0 0 181 395" fill="none" xmlns="http://www.w3.org/2000/svg">
<path fill-rule="evenodd" clip-rule="evenodd" d="M180.135 235.862C174.938 262.684 151.203 275.097 103.653 272.575C68.0426 270.686 40.7786 278.459 21.8747 264.011C11.248 255.889 -1.98442 239.148 0.249214 213.624C1.97431 193.911 25.042 176.492 44.4225 160.666C54.6752 152.293 66.8108 144.922 73.4664 133.014C76.9107 126.851 82.6264 116.526 85.5592 104.175C91.4468 79.3811 92.6639 87.2393 96.0115 99.2945C98.8752 109.607 104.288 122.81 104.498 123.293C112.546 141.826 115.944 139.502 128.292 153.8C142.869 170.681 166.239 180.594 176.296 200.217C180.799 209.003 182.047 225.997 180.135 235.862Z" fill="#FFD42A"/>
<path opacity="0.936073" fill-rule="evenodd" clip-rule="evenodd" d="M89.8571 0.610606C89.7856 26.203 89.9003 61.6674 89.8571 88.7716C89.8571 89.5859 92.5673 89.5858 92.5636 88.7716C92.4473 63.1792 92.0473 23.971 92.5636 0.610606C92.5814 -0.203455 89.8593 -0.203616 89.8571 0.610606Z" fill="#FFD42A"/>
<path opacity="0.936073" fill-rule="evenodd" clip-rule="evenodd" d="M77.8131 60.2309C77.0742 59.7635 75.496 61.7636 76.2426 62.221C85.8795 68.1247 92.4963 72.4764 104.615 80.5114C105.342 80.9934 106.918 78.997 106.186 78.5224C93.5583 70.3463 89.2893 67.4903 77.8131 60.2309Z" fill="#FFD42A"/>
<path opacity="0.936073" fill-rule="evenodd" clip-rule="evenodd" d="M75.7811 12.8306C74.9822 12.8281 74.9494 15.2825 75.7501 15.2729C86.0617 15.1497 93.308 15.3097 106.616 15.6559C107.414 15.6767 107.448 13.226 106.647 13.2144C92.8902 13.0145 88.1879 12.8716 75.7806 12.8306L75.7811 12.8306Z" fill="#FFD42A"/>
<path opacity="0.936073" fill-rule="evenodd" clip-rule="evenodd" d="M62.1147 29.5864C60.608 29.5831 60.5572 32.0381 62.0641 32.0288C81.5127 31.9094 95.181 32.0721 120.283 32.4235C121.789 32.4446 121.841 29.9938 120.335 29.9819C94.386 29.7768 85.5163 29.6322 62.1143 29.5864H62.1147Z" fill="#FFD42A"/>
<path opacity="0.936073" fill-rule="evenodd" clip-rule="evenodd" d="M19.3445 296.807C23.0999 289.955 31.5263 287.311 38.5669 284.841C55.7864 278.8 74.4938 278.88 92.6088 278.652C107.134 278.47 122.048 278.328 136.038 282.526C146.169 285.566 159.074 287.824 164.282 297.632C166.617 302.03 165.807 311.159 164.571 316.416C164.021 318.759 161.151 319.141 159.068 317.896C152.989 314.261 143.643 310.052 136.038 307.948C121.954 304.05 107.154 303.471 92.6088 303.409C76.7659 303.341 60.662 303.927 45.2684 307.948C39.4033 309.48 31.6016 312.978 25.9034 315.807C22.0187 317.735 16.8615 316.491 16.7663 312.317C16.6463 307.06 17.4292 300.302 19.3445 296.807Z" fill="#BAD8D8"/>
<path opacity="0.936073" d="M31.0816 307.26C34.2815 307.26 36.8755 304.746 36.8755 301.644C36.8755 298.542 34.2815 296.027 31.0816 296.027C27.8816 296.027 25.2876 298.542 25.2876 301.644C25.2876 304.746 27.8816 307.26 31.0816 307.26Z" fill="#FFD42A"/>
<path opacity="0.936073" d="M52.0864 298.94C55.2863 298.94 57.8804 296.425 57.8804 293.323C57.8804 290.221 55.2863 287.706 52.0864 287.706C48.8865 287.706 46.2925 290.221 46.2925 293.323C46.2925 296.425 48.8865 298.94 52.0864 298.94Z" fill="#FFD42A"/>
<path opacity="0.936073" d="M77.4736 296.052C80.6736 296.052 83.2676 293.537 83.2676 290.435C83.2676 287.333 80.6736 284.818 77.4736 284.818C74.2737 284.818 71.6797 287.333 71.6797 290.435C71.6797 293.537 74.2737 296.052 77.4736 296.052Z" fill="#FFD42A"/>
<path opacity="0.936073" d="M103.477 296.052C106.676 296.052 109.271 293.537 109.271 290.435C109.271 287.333 106.676 284.818 103.477 284.818C100.277 284.818 97.6826 287.333 97.6826 290.435C97.6826 293.537 100.277 296.052 103.477 296.052Z" fill="#FFD42A"/>
<path opacity="0.936073" d="M128.115 298.302C131.315 298.302 133.909 295.788 133.909 292.686C133.909 289.584 131.315 287.069 128.115 287.069C124.916 287.069 122.322 289.584 122.322 292.686C122.322 295.788 124.916 298.302 128.115 298.302Z" fill="#FFD42A"/>
<path opacity="0.936073" d="M151.043 306.51C154.243 306.51 156.837 303.996 156.837 300.894C156.837 297.792 154.243 295.277 151.043 295.277C147.843 295.277 145.249 297.792 145.249 300.894C145.249 303.996 147.843 306.51 151.043 306.51Z" fill="#FFD42A"/>
<path opacity="0.936073" fill-rule="evenodd" clip-rule="evenodd" d="M18.7676 336.786C18.4185 362.761 18.2529 394.779 18.2529 394.779H163.197C163.197 394.779 163.794 374.538 163.406 335.146C163.365 331.081 160.417 326.724 156.81 325.484C143.254 320.82 111.74 310.668 93.3074 310.297C75.1053 309.932 44.4913 318.127 28.8238 322.728C23.3465 324.337 18.8495 330.692 18.7676 336.786Z" fill="#BAD8D8"/>
<path opacity="0.936073" fill-rule="evenodd" clip-rule="evenodd" d="M90.0398 330.398C89.5417 330.272 89.9671 331.978 89.9671 331.978C89.9671 331.978 93.906 333.23 98.3939 335.318C102.882 337.406 107.894 340.408 109.91 343.467C113.027 348.198 114.44 357.307 114.948 365.162C115.457 373.017 115.139 379.621 115.139 379.621L116.82 379.714C116.82 379.714 117.143 373.015 116.627 365.038C116.111 357.061 114.833 347.809 111.284 342.424C108.838 338.711 103.655 335.797 99.0627 333.661C94.4705 331.525 92.2865 330.965 90.0398 330.398Z" fill="#676767"/>
<path opacity="0.936073" fill-rule="evenodd" clip-rule="evenodd" d="M89.8378 330.352C90.3358 330.226 90.5161 331.932 90.5161 331.932C90.5161 331.932 86.3027 333.23 81.8149 335.317C77.3271 337.405 72.3146 340.408 70.2992 343.466C67.1814 348.198 65.7687 357.307 65.2604 365.162C64.7521 373.017 65.07 379.62 65.07 379.62L63.389 379.713C63.389 379.713 63.0653 373.014 63.5814 365.037C64.0976 357.06 65.3758 347.809 68.9247 342.423C71.3711 338.711 76.5538 335.797 81.1461 333.661C85.7383 331.524 87.5911 330.919 89.8378 330.352Z" fill="#676767"/>
<path opacity="0.936073" fill-rule="evenodd" clip-rule="evenodd" d="M90.06 338.619C89.6782 338.522 90.0043 339.83 90.0043 339.83C90.0043 339.83 93.0235 340.79 96.4636 342.39C99.9036 343.99 103.746 346.292 105.291 348.636C107.68 352.263 108.763 359.245 109.153 365.266C109.543 371.287 109.299 376.349 109.299 376.349L110.587 376.42C110.587 376.42 110.836 371.285 110.44 365.171C110.044 359.056 109.064 351.965 106.344 347.837C104.469 344.991 100.496 342.757 96.9762 341.12C93.4562 339.482 91.7821 339.053 90.06 338.619Z" fill="#676767"/>
<path opacity="0.936073" fill-rule="evenodd" clip-rule="evenodd" d="M89.9054 338.585C90.2871 338.488 90.4253 339.795 90.4253 339.795C90.4253 339.795 87.1956 340.79 83.7556 342.391C80.3156 343.991 76.4734 346.293 74.9286 348.637C72.5387 352.264 71.4558 359.246 71.0662 365.267C70.6766 371.288 70.9202 376.35 70.9202 376.35L69.6317 376.421C69.6317 376.421 69.3836 371.286 69.7792 365.171C70.1749 359.057 71.1547 351.965 73.875 347.837C75.7502 344.992 79.7229 342.758 83.2429 341.12C86.763 339.483 88.1832 339.019 89.9054 338.585Z" fill="#676767"/>
<path opacity="0.936073" fill-rule="evenodd" clip-rule="evenodd" d="M40.047 344.748C39.7271 344.668 40.0003 345.763 40.0003 345.763C40.0003 345.763 42.53 346.567 45.4122 347.908C48.2943 349.249 51.5135 351.177 52.8078 353.141C54.8101 356.18 55.7174 362.03 56.0438 367.075C56.3703 372.119 56.1661 376.36 56.1661 376.36L57.2457 376.42C57.2457 376.42 57.4536 372.118 57.1221 366.995C56.7906 361.872 55.9697 355.93 53.6905 352.471C52.1194 350.087 48.7909 348.216 45.8417 346.844C42.8925 345.472 41.4899 345.112 40.047 344.748Z" fill="#676767"/>
<path opacity="0.936073" fill-rule="evenodd" clip-rule="evenodd" d="M39.9179 344.72C40.2377 344.639 40.3535 345.734 40.3535 345.734C40.3535 345.734 37.6476 346.568 34.7654 347.909C31.8832 349.25 28.6641 351.178 27.3698 353.142C25.3674 356.181 24.4602 362.031 24.1337 367.075C23.8073 372.12 24.0114 376.361 24.0114 376.361L22.9319 376.421C22.9319 376.421 22.724 372.118 23.0555 366.996C23.387 361.873 24.2079 355.931 26.487 352.472C28.0581 350.088 31.3866 348.217 34.3359 346.845C37.2851 345.473 38.475 345.084 39.9179 344.72Z" fill="#676767"/>
<path opacity="0.936073" fill-rule="evenodd" clip-rule="evenodd" d="M40.061 350.029C39.8158 349.967 40.0252 350.807 40.0252 350.807C40.0252 350.807 41.9643 351.423 44.1735 352.451C46.3828 353.479 48.8503 354.957 49.8425 356.463C51.3773 358.792 52.0727 363.276 52.323 367.143C52.5732 371.01 52.4167 374.26 52.4167 374.26L53.2442 374.306C53.2442 374.306 53.4036 371.008 53.1495 367.081C52.8954 363.155 52.2661 358.6 50.5191 355.949C49.3148 354.121 46.7634 352.687 44.5028 351.635C42.2421 350.584 41.167 350.308 40.061 350.029Z" fill="#676767"/>
<path opacity="0.936073" fill-rule="evenodd" clip-rule="evenodd" d="M39.961 350.006C40.2062 349.944 40.2949 350.784 40.2949 350.784C40.2949 350.784 38.2208 351.423 36.0115 352.45C33.8022 353.478 31.3347 354.956 30.3426 356.462C28.8077 358.791 28.1123 363.275 27.8621 367.142C27.6118 371.009 27.7683 374.26 27.7683 374.26L26.9408 374.306C26.9408 374.306 26.7815 371.008 27.0356 367.081C27.2897 363.154 27.9189 358.6 29.6659 355.948C30.8702 354.121 33.4216 352.686 35.6822 351.635C37.9429 350.583 38.855 350.285 39.961 350.006Z" fill="#676767"/>
<path opacity="0.936073" fill-rule="evenodd" clip-rule="evenodd" d="M139.138 344.748C138.818 344.668 139.091 345.763 139.091 345.763C139.091 345.763 141.621 346.567 144.503 347.908C147.385 349.249 150.605 351.177 151.899 353.141C153.901 356.18 154.808 362.03 155.135 367.075C155.461 372.119 155.257 376.36 155.257 376.36L156.337 376.42C156.337 376.42 156.545 372.118 156.213 366.995C155.882 361.872 155.061 355.93 152.782 352.471C151.21 350.087 147.882 348.216 144.933 346.844C141.984 345.472 140.581 345.112 139.138 344.748Z" fill="#676767"/>
<path opacity="0.936073" fill-rule="evenodd" clip-rule="evenodd" d="M139.008 344.72C139.328 344.639 139.444 345.734 139.444 345.734C139.444 345.734 136.738 346.568 133.856 347.909C130.974 349.25 127.754 351.178 126.46 353.142C124.458 356.181 123.55 362.031 123.224 367.075C122.898 372.12 123.102 376.361 123.102 376.361L122.022 376.421C122.022 376.421 121.814 372.118 122.146 366.996C122.477 361.873 123.298 355.931 125.577 352.472C127.148 350.088 130.477 348.217 133.426 346.845C136.375 345.473 137.565 345.084 139.008 344.72Z" fill="#676767"/>
<path opacity="0.936073" fill-rule="evenodd" clip-rule="evenodd" d="M139.151 350.029C138.906 349.967 139.116 350.807 139.116 350.807C139.116 350.807 141.055 351.423 143.264 352.451C145.473 353.479 147.941 354.957 148.933 356.463C150.468 358.792 151.163 363.276 151.413 367.143C151.664 371.01 151.507 374.26 151.507 374.26L152.335 374.306C152.335 374.306 152.494 371.008 152.24 367.081C151.986 363.155 151.356 358.6 149.609 355.949C148.405 354.121 145.854 352.687 143.593 351.635C141.332 350.584 140.257 350.308 139.151 350.029Z" fill="#676767"/>
<path opacity="0.936073" fill-rule="evenodd" clip-rule="evenodd" d="M139.052 350.006C139.297 349.944 139.385 350.784 139.385 350.784C139.385 350.784 137.311 351.423 135.102 352.45C132.893 353.478 130.425 354.956 129.433 356.462C127.898 358.791 127.203 363.275 126.953 367.142C126.702 371.009 126.859 374.26 126.859 374.26L126.031 374.306C126.031 374.306 125.872 371.008 126.126 367.081C126.38 363.154 127.009 358.6 128.756 355.948C129.961 354.121 132.512 352.686 134.773 351.635C137.033 350.583 137.946 350.285 139.052 350.006Z" fill="#676767"/>
</svg>
